<?xml version="1.0" encoding="UTF-8" standalone="no"?>
<!-- Created with Inkscape (http://www.inkscape.org/) -->

<svg
   width="326.27625mm"
   height="250.06531mm"
   viewBox="0 0 326.27624 250.06531"
   version="1.1"
   id="svg5"
   inkscape:version="1.4 (e7c3feb1, 2024-10-09)"
   sodipodi:docname="bce.svg"
   xmlns:inkscape="http://www.inkscape.org/namespaces/inkscape"
   xmlns:sodipodi="http://sodipodi.sourceforge.net/DTD/sodipodi-0.dtd"
   xmlns="http://www.w3.org/2000/svg"
   xmlns:svg="http://www.w3.org/2000/svg">
  <sodipodi:namedview
     id="namedview7"
     pagecolor="#ffffff"
     bordercolor="#666666"
     borderopacity="1.0"
     inkscape:pageshadow="2"
     inkscape:pageopacity="0.0"
     inkscape:pagecheckerboard="0"
     inkscape:document-units="mm"
     showgrid="false"
     inkscape:zoom="0.25790194"
     inkscape:cx="1384.2471"
     inkscape:cy="-399.3766"
     inkscape:window-width="2560"
     inkscape:window-height="1387"
     inkscape:window-x="1518"
     inkscape:window-y="25"
     inkscape:window-maximized="0"
     inkscape:current-layer="layer1"
     inkscape:showpageshadow="2"
     inkscape:deskcolor="#d1d1d1"
     inkscape:export-bgcolor="#ffffff6c" />
  <defs
     id="defs2" />
  <g
     inkscape:label="Layer 1"
     inkscape:groupmode="layer"
     id="layer1"
     transform="translate(107.13731,-607.31547)">
    <path
       style="display:none;fill:#000000;fill-opacity:1;stroke-width:0.24234"
       d=""
       id="path17143"
       transform="scale(0.26458333)" />
    <path
       style="display:none;fill:#000000;fill-opacity:1;stroke-width:0.24234"
       d=""
       id="path17221"
       transform="scale(0.26458333)" />
    <path
       id="path2"
       style="fill:#060606;stroke:none;stroke-width:0.706226"
       d="m 147.58813,607.31607 c -24.95442,0.1523 -37.07391,28.95771 -46.9198,48.78984 -1.716814,3.45768 -3.342761,7.01958 -4.799685,10.59451 -1.044509,2.56289 -1.717752,5.47611 -4.000978,7.27063 -2.288871,1.79946 -5.594088,2.15651 -8.324353,2.91501 -4.543884,1.26342 -9.032285,2.62279 -13.418656,4.36294 -14.236791,5.64839 -27.641914,12.77804 -40.254432,21.48652 -17.553941,12.12097 -33.5568073,27.09056 -46.847974,43.76737 -5.109554,6.41113 -10.045912,12.95332 -14.594012,19.77475 -3.1314,4.69712 -5.93856,10.06608 -9.91742,14.09721 -5.598253,5.671 -12.217364,10.52028 -18.331177,15.62135 -10.228546,8.53474 -20.367568,17.16425 -30.367794,25.96381 -5.626219,4.95065 -12.592239,9.512 -16.949159,15.64627 20.142197,-8.38573 38.899668,-20.56552 57.909986,-31.17092 24.679774,-13.76856 49.86145614,-26.50887 74.154231,-41.00626 10.032642,-5.98668 19.4162,-13.66955 29.661396,-19.17388 3.75994,-2.01976 9.227898,-1.47513 13.41864,-2.17781 7.622302,-1.27897 15.118371,-3.58539 21.892464,-7.36441 14.695153,-8.19788 24.031223,-21.52609 28.546123,-37.52706 1.16388,-4.12646 1.33982,-8.68626 2.77136,-12.69903 0.61723,-1.73026 1.90876,-3.53479 3.99071,-3.32095 5.92664,0.60945 2.57242,10.54975 1.8217,13.9008 -3.05233,13.62096 -9.84889,26.98483 -20.20711,36.52312 -9.615253,8.85253 -20.594701,14.10233 -33.165523,17.24082 -5.033969,1.25635 -11.603567,0.73896 -16.242767,2.8329 -8.304512,3.74865 -16.247441,10.54278 -24.011682,15.40302 -16.785578,10.50651 -34.31089847,21.31579 -52.261742,29.69655 v 0.70641 c 30.130408,-3.82773 59.177419,-8.76435 89.690577,-6.3561 -0.18916,-2.31996 -1.449435,-5.47856 -0.455777,-7.68833 1.784625,-3.97253 5.741027,-1.37437 7.116755,1.34391 3.964732,7.83202 3.713263,19.06484 9.235939,26.04587 3.42662,4.33198 10.423357,4.83642 14.17485,0.62872 5.23453,-5.87084 -0.24986,-16.15192 -2.295062,-22.44792 -0.889061,-2.73875 -3.10181,-7.18218 0.05559,-9.33265 4.334132,-2.95131 5.590632,6.27158 10.314572,5.25107 16.26721,-3.51489 28.20804,-17.66314 35.11914,-31.93594 8.44012,-17.43318 10.81876,-36.71497 12.12455,-55.79227 0.35394,-5.16111 -0.31542,-10.38443 0.18321,-15.53636 0.63136,-6.52907 2.55511,-13.15584 5.37861,-19.06835 1.53888,-3.22252 4.6264,-6.39229 5.37713,-9.88811 0.45126,-2.10385 -0.44311,-4.29531 -0.78703,-6.35466 -0.62557,-3.74866 -1.04609,-7.49505 -0.87934,-11.3009 0.3715,-8.46906 4.0507,-15.39724 6.32828,-23.30527 -6.26283,-2.5694 -12.30909,-5.08223 -19.06835,-6.05275 -1.78083,-0.25582 -3.50247,-0.37362 -5.16608,-0.36347 z m 1.5315,5.56474 c 12.65183,0.19426 18.38167,19.89205 4.34097,24.296 -5.93302,1.8609 -12.3497,-0.32136 -15.47333,-5.78896 -3.75078,-6.56225 -0.24304,-15.71557 6.99804,-17.90325 1.44274,-0.43587 2.8255,-0.6239 4.13432,-0.60379 z m 70.0193,11.44546 -43.78598,2.11867 4.68723,-9.86752 10.84976,-0.31936 20.4805,3.37584 7.76849,4.69237 m -71.29769,-3.21129 c 5.78963,-1.42508 7.95774,7.43946 2.07698,8.60543 -5.44779,1.08053 -7.57073,-7.25293 -2.07698,-8.60543 m 55.0545,11.686 v 0.7062 l -28.95525,14.12454 0.0198,-12.18804 7.04247,-1.35032 21.89299,-1.29238 m -100.9902,189.97473 c 2.0431,8.91258 4.4831,20.22843 13.41829,24.62045 8.19996,4.03044 21.85485,-0.50706 25.4241,9.98461 H 80.012606 c 2.668832,-7.75789 11.951456,-3.64554 16.346301,-9.91752 4.590473,-6.55238 -2.310053,-16.18811 -2.927993,-23.27509 z" />
    <path
       style="display:none;fill:#ffff00;fill-opacity:1;stroke-width:1.93872"
       d=""
       id="path557048"
       transform="scale(0.26458333)" />
    <path
       style="display:none;fill:none;fill-opacity:1;stroke-width:0.0906783"
       d="m 134.9745,115.71871 c -0.51168,-0.23742 -0.95212,-0.92111 -0.95212,-1.47798 0,-0.42344 0.33265,-0.97871 0.71511,-1.19366 0.78072,-0.43879 1.67477,-0.17344 2.07325,0.61533 0.36909,0.73061 0.20757,1.44958 -0.43201,1.92304 -0.30388,0.22494 -1.05336,0.29607 -1.40423,0.13327 z"
       id="path558177"
       inkscape:export-filename="/Users/ryan/Desktop/Raven2.png"
       inkscape:export-xdpi="24.959999"
       inkscape:export-ydpi="24.959999" />
  </g>
</svg>
